<?xml version="1.0" encoding="utf-8"?>
<!-- Generator: Adobe Illustrator 27.5.0, SVG Export Plug-In . SVG Version: 6.00 Build 0)  -->
<svg version="1.1" xmlns="http://www.w3.org/2000/svg" xmlns:xlink="http://www.w3.org/1999/xlink" x="0px" y="0px"
	 viewBox="0 0 3710 3710" style="enable-background:new 0 0 3710 3710;" xml:space="preserve">
<g id="Background">
	<g>
		<g>
			<rect style="fill:#FFFFFF;" width="3710" height="3710"/>
		</g>
	</g>
</g>
<g id="Illustration">
	<g>
		<linearGradient id="SVGID_1_" gradientUnits="userSpaceOnUse" x1="3500.625" y1="3877.7739" x2="1142.0732" y2="948.6006">
			<stop  offset="0" style="stop-color:#B37CFF"/>
			<stop  offset="1" style="stop-color:#F895E7"/>
		</linearGradient>
		<path style="opacity:0.3;fill:url(#SVGID_1_);" d="M2851.773,2722.614c-54.175,57.033-105.435,93.813-145.935,122.872
			c-476.063,341.581-1039.371,242.011-1159.091,217.696c-176.787-35.906-518.514-105.313-765.575-395.853
			c-373.784-439.562-315.58-1132.081-25.648-1589.221c53.033-83.619,333.17-547.723,902.546-622.151
			c344.58-45.043,746.25,45.803,1037.128,289.501C3305.777,1257.003,3262.31,2290.413,2851.773,2722.614z"/>
		<g>
			
				<linearGradient id="SVGID_00000139269295827754669540000013022164991517328274_" gradientUnits="userSpaceOnUse" x1="-71.2554" y1="2593.8479" x2="1010.6557" y2="2593.8479" gradientTransform="matrix(-0.9613 0.2755 0.2755 0.9613 2406.8516 -1384.1506)">
				<stop  offset="0" style="stop-color:#A737D5"/>
				<stop  offset="1" style="stop-color:#EF497A"/>
			</linearGradient>
			<path style="fill:url(#SVGID_00000139269295827754669540000013022164991517328274_);" d="M3001.578,440.384
				c3.816-11.777-9.917-21.455-19.841-14.053c-100.775,75.158-348.66,306.348-345.004,760.029
				c4.587,569.211-135.653,760.779-295.434,869.193c0,0,206.604-36.039,356.018-229.617
				C3064.161,1350.654,2933.732,649.79,3001.578,440.384z"/>
			<path style="fill:#FFFFFF;" d="M2912.35,607.865c-18.496,61.207-35.775,122.745-50.779,184.828
				c-15.327,61.993-28.769,124.422-40.246,187.181c-11.234,62.797-21.289,125.796-28.653,189.128
				c-7.648,63.296-12.569,126.849-17.286,190.675c-5.071,63.763-9.817,128.026-21.157,191.999
				c-11.257,63.849-30.317,127.381-60.42,185.546c-7.52,14.494-15.333,28.908-23.918,42.717
				c-8.333,13.975-17.286,27.584-26.479,41.027c-18.525,26.802-38.86,52.42-61.004,76.412
				c-44.416,47.879-96.09,88.957-151.669,122.376c-5.85,3.517-13.443,1.626-16.961-4.224c-3.454-5.744-1.692-13.17,3.911-16.766
				l0.04-0.026c13.288-8.511,26.463-17.163,39.206-26.373c6.447-4.504,12.68-9.284,19-13.946
				c6.136-4.895,12.465-9.553,18.443-14.632c24.25-19.907,47.074-41.493,68.188-64.659c42.41-46.075,78.153-98.727,107.009-154.242
				c14.119-27.929,26.155-56.85,35.924-86.597c9.747-29.757,17.223-60.31,22.961-91.312
				c11.486-62.039,16.709-125.607,22.238-189.329c5.613-63.729,11.691-127.732,20.394-191.385
				c4.265-31.834,9.101-63.588,14.504-95.239c2.61-15.84,5.527-31.628,8.414-47.417c3.039-15.762,6.165-31.506,9.418-47.22
				c13.13-62.837,28.171-125.243,45.163-187.086c17.288-61.761,36.209-123.044,57.459-183.493c0.608-1.728,2.5-2.636,4.228-2.029
				C2911.954,604.368,2912.857,606.179,2912.35,607.865z"/>
		</g>
		<g>
			<g>
				
					<linearGradient id="SVGID_00000059281244195651720090000016995029491546083235_" gradientUnits="userSpaceOnUse" x1="-2577.0747" y1="-492.1297" x2="-1249.9165" y2="-492.1297" gradientTransform="matrix(-0.0282 -0.9997 -0.9997 0.0282 2338.3516 -159.4049)">
					<stop  offset="0" style="stop-color:#CE1567"/>
					<stop  offset="1" style="stop-color:#7A1DBC"/>
				</linearGradient>
				<path style="fill:url(#SVGID_00000059281244195651720090000016995029491546083235_);" d="M2525.074,2384.014
					c2.3,22.695,27.031,35.665,47.15,24.916c111.015-59.31,409.73-255.386,492.537-681.929
					c69.927-360.196,142.073-548.864,180.76-632.243c8.18-17.631-10.902-35.458-27.954-26.131
					C3029.427,1171.526,2441.728,1561.655,2525.074,2384.014z"/>
				<path style="fill:#FFFFFF;" d="M2554.983,2391.725c0.381,0.418,0.806,0.804,1.277,1.154c3.946,2.935,9.526,2.115,12.461-1.831
					c3.327-4.474,334.11-453.1,453.963-949.537c1.152-4.778-1.787-9.589-6.568-10.749c-4.782-1.153-9.592,1.786-10.749,6.568
					c-118.979,492.823-447.632,938.643-450.937,943.087C2551.843,2383.895,2552.171,2388.637,2554.983,2391.725z"/>
			</g>
		</g>
		<g>
			
				<linearGradient id="SVGID_00000144299936925222098010000001057800660141804938_" gradientUnits="userSpaceOnUse" x1="1044.4824" y1="1895.3375" x2="2738.6047" y2="1895.3375">
				<stop  offset="0" style="stop-color:#2B3582"/>
				<stop  offset="1" style="stop-color:#150E42"/>
			</linearGradient>
			<path style="fill:url(#SVGID_00000144299936925222098010000001057800660141804938_);" d="M1075.526,759.401
				c-9.992,403.06-42.398,1793.369-26.928,2286.052c1.639,52.196,43.481,94.089,95.674,95.797
				c258.149,8.448,1000.769,29.86,1423.014,12.145c87.947-3.69,157.884-74.927,159.71-162.933
				c8.775-423.064,28.133-1612.982-17.88-2158.084c-5.513-65.312-56.775-117.322-121.993-123.846
				c-281.136-28.124-1027.826-96.87-1392.619-73.198C1128.713,639.603,1077.16,693.492,1075.526,759.401z"/>
			
				<linearGradient id="SVGID_00000043457127574080419930000014789788901931226248_" gradientUnits="userSpaceOnUse" x1="2772.575" y1="365.6562" x2="1219.0245" y2="2889.3865">
				<stop  offset="0" style="stop-color:#A737D5"/>
				<stop  offset="1" style="stop-color:#EF497A"/>
			</linearGradient>
			<path style="fill:url(#SVGID_00000043457127574080419930000014789788901931226248_);" d="M1180.42,884.64
				c-14.1,330.103-58.572,1428.281-44.457,1834.365c2.063,59.355,48.844,107.348,108.133,110.817
				c244.111,14.285,870.234,45.784,1228.285,17.112c64.473-5.163,115.066-57.304,118.546-121.889
				c18.145-336.775,70.243-1359.333,56.712-1760.865c-2.159-64.056-51.778-116.369-115.613-122.1
				c-264.089-23.711-942.36-80.129-1246.622-63.528C1228.289,781.668,1182.861,827.491,1180.42,884.64z"/>
			<path style="opacity:0.5;fill:#FFFFFF;" d="M1713.513,705.762L1713.513,705.762c0,12.368,9.639,22.568,21.989,23.214
				c60.973,3.193,232.735,12.228,309.498,16.682c15.135,0.878,27.014-12.727,24.144-27.613l-0.49-2.54
				c-1.959-10.158-10.384-17.803-20.685-18.747c-51.888-4.754-208.456-17.938-312.193-14.235
				C1723.314,682.968,1713.513,693.293,1713.513,705.762z"/>
		</g>
		<path style="opacity:0.34;fill:#FFFFFF;" d="M2424.236,1957.022H1326.908c-39.466,0-71.46-36.357-71.46-81.205V972.234
			c0-60.067,43.73-108.224,96.563-106.339l1093.195,41c92.713,6.678,91.462,106.197,91.462,177.107l-0.001,745.258
			C2536.666,1899.821,2486.33,1957.022,2424.236,1957.022z"/>
		<g style="opacity:0.86;">
			<path style="fill:#FFFFFF;" d="M2452.764,1233.939h-712.323c-5.404,0-9.826-4.422-9.826-9.826v-50.367
				c0-5.404,4.422-9.826,9.826-9.826h712.323c5.404,0,9.826,4.422,9.826,9.826v50.367
				C2462.59,1229.518,2458.168,1233.939,2452.764,1233.939z"/>
			<path style="fill:#FFFFFF;" d="M2452.764,1365.329h-712.323c-5.404,0-9.826-4.422-9.826-9.826v-50.367
				c0-5.404,4.422-9.826,9.826-9.826h712.323c5.404,0,9.826,4.422,9.826,9.826v50.367
				C2462.59,1360.907,2458.168,1365.329,2452.764,1365.329z"/>
		</g>
		<g style="opacity:0.86;">
			<path style="fill:#FFFFFF;" d="M2449.594,1661.585h-712.323c-5.404,0-9.826-4.422-9.826-9.826v-50.367
				c0-5.404,4.422-9.826,9.826-9.826h712.323c5.404,0,9.826,4.422,9.826,9.826v50.367
				C2459.419,1657.163,2454.998,1661.585,2449.594,1661.585z"/>
			<path style="fill:#FFFFFF;" d="M2449.594,1792.974h-712.323c-5.404,0-9.826-4.422-9.826-9.826v-50.367
				c0-5.404,4.422-9.826,9.826-9.826h712.323c5.404,0,9.826,4.422,9.826,9.826v50.367
				C2459.419,1788.553,2454.998,1792.974,2449.594,1792.974z"/>
		</g>
		<path style="opacity:0.86;fill:#FFFFFF;" d="M2171.382,1031.243h-496.29c-5.404,0-9.826-4.422-9.826-9.826V971.05
			c0-5.404,4.422-9.826,9.826-9.826h496.29c5.404,0,9.826,4.422,9.826,9.826v50.367
			C2181.208,1026.822,2176.787,1031.243,2171.382,1031.243z"/>
		<g>
			<path style="opacity:0.47;fill:#FFFFFF;" d="M1675.502,1453.166h-318.396c-15.747,0-28.513-12.766-28.513-28.513v-318.396
				c0-15.747,12.766-28.513,28.513-28.513h318.396c15.747,0,28.513,12.766,28.513,28.513v318.396
				C1704.015,1440.4,1691.25,1453.166,1675.502,1453.166z"/>
			<g>
				
					<linearGradient id="SVGID_00000016037104914046142340000002845483328363691182_" gradientUnits="userSpaceOnUse" x1="1479.788" y1="913.9352" x2="1540.1243" y2="1594.3888">
					<stop  offset="0" style="stop-color:#53D8FF"/>
					<stop  offset="1" style="stop-color:#3840F7"/>
				</linearGradient>
				<path style="fill:url(#SVGID_00000016037104914046142340000002845483328363691182_);" d="M1422.723,1209.902
					c14.196,102.977,66.768,151.234,137.939,172.98l41.088-33.024c-74.839-30.281-127.383-84.093-149.679-169.835L1422.723,1209.902
					z"/>
				
					<linearGradient id="SVGID_00000042725286318262486790000010384072814155433646_" gradientUnits="userSpaceOnUse" x1="1560.5933" y1="906.7706" x2="1620.9296" y2="1587.2241">
					<stop  offset="0" style="stop-color:#53D8FF"/>
					<stop  offset="1" style="stop-color:#3840F7"/>
				</linearGradient>
				<path style="fill:url(#SVGID_00000042725286318262486790000010384072814155433646_);" d="M1558.171,1382.095
					c43.327,7.116,48.483,7.528,83.928-15.978c3.972-2.634,4.358-8.374,0.732-11.466l-62.614-53.395
					c-2.446-2.086-6.209-1.245-7.536,1.683l-10.325,22.803L1558.171,1382.095z"/>
				
					<linearGradient id="SVGID_00000039831639713650583470000000265376751159196330_" gradientUnits="userSpaceOnUse" x1="1437.1942" y1="917.7122" x2="1497.5304" y2="1598.1656">
					<stop  offset="0" style="stop-color:#53D8FF"/>
					<stop  offset="1" style="stop-color:#3840F7"/>
				</linearGradient>
				<path style="fill:url(#SVGID_00000039831639713650583470000000265376751159196330_);" d="M1421.243,1212.426
					c-4.284-39.593-3.553-45.563,20.923-78.505c2.842-3.825,8.594-3.904,11.488-0.118l49.975,65.376
					c1.952,2.554,0.912,6.267-2.083,7.435l-23.322,9.093l-52.057,1.078C1423.656,1216.836,1421.514,1214.924,1421.243,1212.426z"/>
			</g>
		</g>
		<g>
			<path style="opacity:0.5;fill:#FFFFFF;" d="M1670.574,1871.279h-331.898c-15.747,0-28.513-12.766-28.513-28.513v-331.898
				c0-15.747,12.766-28.513,28.513-28.513h331.898c15.747,0,28.513,12.766,28.513,28.513v331.898
				C1699.087,1858.514,1686.321,1871.279,1670.574,1871.279z"/>
			<g>
				<g>
					<g>
						
							<linearGradient id="SVGID_00000103257457301663506200000012735190823641239453_" gradientUnits="userSpaceOnUse" x1="1402.6328" y1="1622.0293" x2="1609.5107" y2="1622.0293">
							<stop  offset="0" style="stop-color:#53D8FF"/>
							<stop  offset="1" style="stop-color:#3840F7"/>
						</linearGradient>
						
							<circle style="fill:url(#SVGID_00000103257457301663506200000012735190823641239453_);" cx="1506.072" cy="1622.029" r="103.439"/>
						
							<linearGradient id="SVGID_00000000904184909137732240000010562576336415287718_" gradientUnits="userSpaceOnUse" x1="1402.4441" y1="1729.3009" x2="1609.5214" y2="1729.3009">
							<stop  offset="0" style="stop-color:#53D8FF"/>
							<stop  offset="1" style="stop-color:#3840F7"/>
						</linearGradient>
						<path style="fill:url(#SVGID_00000000904184909137732240000010562576336415287718_);" d="M1609.322,1616.484h-103.25h-103.439
							c0,0-8.235,57.413,84.083,214.669c4.028,6.861,11.387,10.961,19.344,10.965c7.956,0.004,15.329-4.028,19.356-10.889
							C1617.724,1673.959,1609.322,1616.484,1609.322,1616.484z"/>
					</g>
					<g>
						
							<linearGradient id="SVGID_00000088123894757437702560000009911575338779356863_" gradientUnits="userSpaceOnUse" x1="1467.3068" y1="1484.7008" x2="1575.884" y2="1874.0265">
							<stop  offset="0" style="stop-color:#53D8FF"/>
							<stop  offset="1" style="stop-color:#3840F7"/>
						</linearGradient>
						<path style="fill:url(#SVGID_00000088123894757437702560000009911575338779356863_);" d="M1506.026,1845.474v0.582h0.032
							c-9.004,0-17.407-4.954-21.932-12.66c-53.963-91.921-73.736-150.043-80.819-182.565c-2.02-7.481-3.18-14.816-3.546-22.335
							c-0.625-7.692-0.147-10.932-0.09-11.275l0.272-1.655c4.168-55.564,50.412-98.806,106.13-98.806
							c56.45,0,103.112,43.855,106.266,99.861c0.079,0.733,0.231,2.592,0.171,5.702l0.005,0.381c0,10.16-1.435,20.223-4.266,29.911
							c-7.327,32.494-27.222,90.042-80.265,180.413C1523.429,1840.786,1515.333,1845.474,1506.026,1845.474z M1405.456,1621.137
							c-0.025,1.551,0.022,3.766,0.295,7.101l0.007-0.011c0.344,7.123,1.445,13.982,3.367,21.082l0.036,0.119
							c6.977,32.081,26.545,89.475,80.146,180.78c3.451,5.878,9.848,9.524,16.732,9.528l-0.012,2.996v-3.003
							c6.205,0,13.298-3.682,16.777-9.61c52.703-89.792,72.379-146.857,79.595-178.916l0.053-0.186
							c2.688-9.167,3.452-18.693,3.452-28.313l-0.603-0.423v-0.034c0-2.994,0.507-4.613,0.458-5.038l0.286-0.174
							c-2.936-52.864-46.832-94.274-100.124-94.274c-53.19,0-97.155,41.994-100.188,95.322l-0.086,3.054H1405.456z"/>
					</g>
					<circle style="opacity:0.8;fill:#FFFFFF;" cx="1506.405" cy="1621.696" r="59.728"/>
					<g>
						
							<linearGradient id="SVGID_00000085941075960349353270000009132287240101830072_" gradientUnits="userSpaceOnUse" x1="1443.3409" y1="1621.6957" x2="1569.47" y2="1621.6957">
							<stop  offset="0" style="stop-color:#53D8FF"/>
							<stop  offset="1" style="stop-color:#3840F7"/>
						</linearGradient>
						<path style="fill:url(#SVGID_00000085941075960349353270000009132287240101830072_);" d="M1506.405,1684.76
							c-34.774,0-63.064-28.291-63.064-63.064c0-34.774,28.291-63.064,63.064-63.064c34.774,0,63.065,28.291,63.065,63.064
							C1569.47,1656.469,1541.179,1684.76,1506.405,1684.76z M1506.405,1565.305c-31.094,0-56.391,25.297-56.391,56.391
							s25.297,56.391,56.391,56.391c31.094,0,56.391-25.297,56.391-56.391S1537.5,1565.305,1506.405,1565.305z"/>
					</g>
				</g>
				<g>
					<path style="fill:#FFFFFF;" d="M1449.748,1559.51c-0.282,0-0.562-0.118-0.76-0.349c-0.36-0.419-0.312-1.051,0.108-1.411
						c16.779-14.41,38.216-22.346,60.363-22.346c0.553,0,1.001,0.448,1.001,1.001c0,0.553-0.448,1.001-1.001,1.001
						c-21.669,0-42.643,7.765-59.059,21.863C1450.211,1559.43,1449.979,1559.51,1449.748,1559.51z"/>
				</g>
				<g>
					<path style="fill:#FFFFFF;" d="M1417.764,1629.099c-0.553,0-1.001-0.448-1.001-1.001c0-17.296,4.795-34.169,13.867-48.794
						c0.292-0.47,0.909-0.615,1.378-0.323c0.47,0.292,0.615,0.909,0.323,1.378c-8.875,14.308-13.566,30.816-13.566,47.739
						C1418.765,1628.651,1418.317,1629.099,1417.764,1629.099z"/>
				</g>
			</g>
		</g>
		<g>
			
				<linearGradient id="SVGID_00000176746316749297472030000014450346060888412299_" gradientUnits="userSpaceOnUse" x1="14338.1855" y1="2980.6089" x2="13730.1816" y2="3641.9478" gradientTransform="matrix(1 0.0095 -0.0095 1 -13247.2676 -63.4747)">
				<stop  offset="0" style="stop-color:#2B3582"/>
				<stop  offset="1" style="stop-color:#150E42"/>
			</linearGradient>
			<path style="fill:url(#SVGID_00000176746316749297472030000014450346060888412299_);" d="M869.943,3100.779
				c0,0-6.637,35.588-10.06,70.847c-1.339,13.779,9.179,25.854,23.006,26.563c46.973,2.405,147.456,7.17,183.542,5.904
				c5.425-0.191,9.023-5.707,7.064-10.77c-1.641-4.242-4.852-7.69-8.967-9.629l-165.31-77.895L869.943,3100.779z"/>
			
				<linearGradient id="SVGID_00000123442928618607690700000016809178736418361478_" gradientUnits="userSpaceOnUse" x1="14140.8369" y1="3029.7214" x2="14194.8428" y2="3029.7214" gradientTransform="matrix(1 0.0095 -0.0095 1 -13247.2676 -63.4747)">
				<stop  offset="0" style="stop-color:#F9B776"/>
				<stop  offset="1" style="stop-color:#F47960"/>
			</linearGradient>
			<path style="fill:url(#SVGID_00000123442928618607690700000016809178736418361478_);" d="M864.985,3079.785l4.652,42.687
				c0,0,28.957,13.818,48.965-1.239l-11.591-47.633L864.985,3079.785z"/>
			
				<linearGradient id="SVGID_00000023269353712925601310000016632420471168018358_" gradientUnits="userSpaceOnUse" x1="580.5319" y1="3451.7766" x2="984.7526" y2="2229.605">
				<stop  offset="0" style="stop-color:#53D8FF"/>
				<stop  offset="1" style="stop-color:#3840F7"/>
			</linearGradient>
			<path style="fill:url(#SVGID_00000023269353712925601310000016632420471168018358_);" d="M876.435,2278.186
				c-2.291,11.114-17.031,555.553,38.847,800.131c0.912,3.99-1.146,8.076-4.95,9.588c-8.962,3.562-26.515,8.677-47.496,9.181
				c-6.497,0.157-12.281-4.121-14.054-10.373c-16.098-56.776-93.118-341.203-100.933-612.281
				c-8.733-302.904,0.099-10.31,0.099-10.31l8.601-187.102L876.435,2278.186z"/>
			
				<linearGradient id="SVGID_00000005260057046874628850000015532276155890086838_" gradientUnits="userSpaceOnUse" x1="14201.79" y1="2855.1909" x2="13593.7598" y2="3516.5579" gradientTransform="matrix(1 0.0095 -0.0095 1 -13247.2676 -63.4747)">
				<stop  offset="0" style="stop-color:#2B3582"/>
				<stop  offset="1" style="stop-color:#150E42"/>
			</linearGradient>
			<path style="fill:url(#SVGID_00000005260057046874628850000015532276155890086838_);" d="M678.767,3117.554
				c0,0-10.195,17.901-20.355,65.628c-1.835,8.62,4.121,16.942,12.882,17.889c15.503,1.674,39.371,3.864,58.508,3.915
				c8.82,0.023,15.778-7.592,14.799-16.358c-1.953-17.475-8.283-46.177-28.468-68.691L678.767,3117.554z"/>
			
				<linearGradient id="SVGID_00000092437481715100975980000013954488994264873857_" gradientUnits="userSpaceOnUse" x1="13946.1934" y1="3026.9438" x2="13992.8213" y2="3026.9438" gradientTransform="matrix(1 0.0095 -0.0095 1 -13247.2676 -63.4747)">
				<stop  offset="0" style="stop-color:#F9B776"/>
				<stop  offset="1" style="stop-color:#F47960"/>
			</linearGradient>
			<path style="fill:url(#SVGID_00000092437481715100975980000013954488994264873857_);" d="M670.487,3062.626l11.206,64.595
				c0,0,11.606,8.805,34.787,2.723l-4.981-69.432L670.487,3062.626z"/>
			
				<linearGradient id="SVGID_00000039825145359733706560000016923328296936188822_" gradientUnits="userSpaceOnUse" x1="447.392" y1="3407.7419" x2="851.6132" y2="2185.5691">
				<stop  offset="0" style="stop-color:#53D8FF"/>
				<stop  offset="1" style="stop-color:#3840F7"/>
			</linearGradient>
			<path style="fill:url(#SVGID_00000039825145359733706560000016923328296936188822_);" d="M645.894,2292.698
				c-50.345,286.845,3.552,710.181,22.301,793.116c1.148,5.078,5.2,8.998,10.326,9.899c8.707,1.528,23.054,2.845,37.249-1.132
				c4.89-1.369,8.359-5.735,8.606-10.809c3.26-66.875,2.46-477.621,48.365-639.509c2.326-8.204,7.418-15.33,14.415-20.205
				l86.677-60.383l7.545-98.87L645.894,2292.698z"/>
			<g>
				
					<linearGradient id="SVGID_00000109747550424835521800000016046523409181149349_" gradientUnits="userSpaceOnUse" x1="-1511.6078" y1="1732.1832" x2="-1831.3099" y2="2963.0342" gradientTransform="matrix(-1 0 0 1 -703.6557 0)">
					<stop  offset="0" style="stop-color:#FDF53F"/>
					<stop  offset="0.6645" style="stop-color:#E57A58"/>
					<stop  offset="1" style="stop-color:#D93C65"/>
				</linearGradient>
				<path style="fill:url(#SVGID_00000109747550424835521800000016046523409181149349_);" d="M954.427,1751.216
					c-142.64-3.718-300.432,34.596-300.432,34.596c-44.893,247.724-12.534,534.261-12.534,534.261
					c110.169,30.017,235.203-15.467,235.203-15.467c19.346-103.537,107.78-394.602,107.78-394.602
					c69.786-7.985,127.4-27.549,174.94-53.685c-35.67-42.155-52.168-95.518-59.252-127.037
					C1049.542,1744.477,998.422,1752.363,954.427,1751.216z"/>
				
					<linearGradient id="SVGID_00000120548492087392292770000012768775280011942838_" gradientUnits="userSpaceOnUse" x1="14363.1348" y1="1620.7314" x2="14639.0596" y2="1620.7314" gradientTransform="matrix(1 0.0095 -0.0095 1 -13247.2676 -63.4747)">
					<stop  offset="0" style="stop-color:#F9B776"/>
					<stop  offset="1" style="stop-color:#F47960"/>
				</linearGradient>
				<path style="fill:url(#SVGID_00000120548492087392292770000012768775280011942838_);" d="M1377.832,1545.102
					c-13.853-17.061-31.666-9.223-31.666-9.223c-21.84,88.481-132.605,159.335-246.032,193.403
					c7.085,31.519,23.582,84.882,59.252,127.037C1348.078,1752.581,1377.832,1545.102,1377.832,1545.102z"/>
			</g>
			<g>
				
					<linearGradient id="SVGID_00000119115911656184433690000017757125882535161221_" gradientUnits="userSpaceOnUse" x1="1462.8507" y1="1180.9749" x2="1351.8826" y2="1631.1891">
					<stop  offset="0" style="stop-color:#F9B776"/>
					<stop  offset="1" style="stop-color:#F47960"/>
				</linearGradient>
				<path style="fill:url(#SVGID_00000119115911656184433690000017757125882535161221_);" d="M1374.389,1549.374
					c1.422,4.676-15.627,11.613-25.444-7.549c-0.261-9.141-5.446-48.342,0.086-55.734c29.459-39.369,86.315-88.532,86.315-88.532
					c9.44,9.494,1.501,18.655,1.501,18.655l-27.624,28.232c5.623,10.392,12.518,19.186,15.669,31.722
					c2.386,9.493,0.775,19.599-4.091,28.172c-4.884,8.604-11.541,19.785-17.818,28.525
					C1391.104,1549.408,1374.389,1549.374,1374.389,1549.374z"/>
				
					<linearGradient id="SVGID_00000177447785886391486080000017270771936010155176_" gradientUnits="userSpaceOnUse" x1="1402.3771" y1="1360.1906" x2="1326.2843" y2="1867.4733">
					<stop  offset="0" style="stop-color:#F9B776"/>
					<stop  offset="1" style="stop-color:#F47960"/>
				</linearGradient>
				<path style="fill:url(#SVGID_00000177447785886391486080000017270771936010155176_);" d="M1397.084,1462.819l-25.127,20.892
					l-8.026,20.962l21.988,24.865c0,0,7.87-41.67,13.51-50.652C1405.068,1469.907,1402.23,1465.511,1397.084,1462.819z"/>
			</g>
			
				<linearGradient id="SVGID_00000052827085803412367320000005335309836003451570_" gradientUnits="userSpaceOnUse" x1="-1264.074" y1="1796.4775" x2="-1583.7764" y2="3027.3291" gradientTransform="matrix(-1 0 0 1 -703.6557 0)">
				<stop  offset="0" style="stop-color:#FDF53F"/>
				<stop  offset="0.6645" style="stop-color:#E57A58"/>
				<stop  offset="1" style="stop-color:#D93C65"/>
			</linearGradient>
			<path style="fill:url(#SVGID_00000052827085803412367320000005335309836003451570_);" d="M707.396,1924.474l-53.401-138.661
				c0,0-134.12,89.269-157.129,203.856c25.161,2.095,70.915,9.081,115.545,32.153
				C622.783,1967.711,707.396,1924.474,707.396,1924.474z"/>
			
				<linearGradient id="SVGID_00000142855595278939986720000005251229622979036347_" gradientUnits="userSpaceOnUse" x1="13759.3574" y1="2011.5334" x2="14108.5313" y2="2011.5334" gradientTransform="matrix(1 0.0095 -0.0095 1 -13247.2676 -63.4747)">
				<stop  offset="0" style="stop-color:#F9B776"/>
				<stop  offset="1" style="stop-color:#F47960"/>
			</linearGradient>
			<path style="fill:url(#SVGID_00000142855595278939986720000005251229622979036347_);" d="M822.607,2055.57
				c0,0-150.419,83.126-200.211,10.445c-10.337-15.092-12.702-30.014-9.984-44.194c-44.63-23.072-90.384-30.058-115.545-32.153
				c-6.937,34.545-3.796,71.385,16.185,108.779c86.883,162.601,329.003-5.801,329.003-5.801L822.607,2055.57z"/>
			
				<linearGradient id="SVGID_00000104664320080517866640000000546116430749105085_" gradientUnits="userSpaceOnUse" x1="14027.4863" y1="1638.2522" x2="14165.5439" y2="1638.2522" gradientTransform="matrix(1 0.0095 -0.0095 1 -13247.2676 -63.4747)">
				<stop  offset="0" style="stop-color:#F9B776"/>
				<stop  offset="1" style="stop-color:#F47960"/>
			</linearGradient>
			<path style="fill:url(#SVGID_00000104664320080517866640000000546116430749105085_);" d="M811.026,1634.017l-46.646,130.841
				c-0.772,2.167,0.098,4.584,2.102,5.717c12.309,6.959,56.699,27.159,110.747-6.39c5.631-3.495,9.496-9.246,10.408-15.809
				l15.783-113.478L811.026,1634.017z"/>
			<g>
				
					<linearGradient id="SVGID_00000052068062500464310130000004140751244053553029_" gradientUnits="userSpaceOnUse" x1="5201.1748" y1="7798.1245" x2="5149.5845" y2="7627.9683" gradientTransform="matrix(0.7523 -0.6588 0.6588 0.7523 -8113.8643 -818.1582)">
					<stop  offset="0" style="stop-color:#F9B776"/>
					<stop  offset="1" style="stop-color:#F47960"/>
				</linearGradient>
				<path style="fill:url(#SVGID_00000052068062500464310130000004140751244053553029_);" d="M910.954,1513.397
					c0,0,48.952,94.306,42.201,132.148c-6.751,37.841-68.502,34.53-122.154,3.233l-36.729-101.676L910.954,1513.397z"/>
				
					<linearGradient id="SVGID_00000106145104337279955330000008953089342198836152_" gradientUnits="userSpaceOnUse" x1="5154.6338" y1="7501.6523" x2="5197.7881" y2="7747.791" gradientTransform="matrix(0.7523 -0.6588 0.6588 0.7523 -8113.8643 -818.1582)">
					<stop  offset="0" style="stop-color:#2B3582"/>
					<stop  offset="1" style="stop-color:#150E42"/>
				</linearGradient>
				<path style="fill:url(#SVGID_00000106145104337279955330000008953089342198836152_);" d="M833.861,1599.044
					c2.201-0.95,3.036-3.626,1.742-5.645c-3.936-6.139-11.303-18.656-13.588-29.576c0,0-8.906-5.824,22.934-13.125
					c31.841-7.301,79.328-18.651,89.543-45.597c9.96-26.272-14.916-92.815-56.117-40.376c-1.567,1.996-4.601,2.011-6.128-0.016
					c-6.588-8.746-23.956-26.938-48.412-16.243c-22.886,10.008-25.612,26.682-25.379,35.102c0.069,2.476-2.164,4.38-4.593,3.893
					c-11.5-2.308-39.131-4.459-52.307,23.781c-10.852,23.26-4.069,36.552,2.161,43.078c2.019,2.115,1.092,5.558-1.712,6.386
					c-7.595,2.246-17.433,8.574-16.624,26.323c1.12,24.538,28.561,22.639,36.378,21.595c1.281-0.17,2.566,0.281,3.423,1.248
					c6.624,7.471,36.483,39.213,69.09,43.316c2.824,0.355,5.041-2.414,4.141-5.115l-13.735-41.199
					c-0.638-1.913,0.295-3.997,2.146-4.796L833.861,1599.044z"/>
				
					<linearGradient id="SVGID_00000097464457974979673940000018353248511808856719_" gradientUnits="userSpaceOnUse" x1="5148.438" y1="7797.3301" x2="5102.0215" y2="7644.2378" gradientTransform="matrix(0.7523 -0.6588 0.6588 0.7523 -8113.8643 -818.1582)">
					<stop  offset="0" style="stop-color:#F9B776"/>
					<stop  offset="1" style="stop-color:#F47960"/>
				</linearGradient>
				<path style="fill:url(#SVGID_00000097464457974979673940000018353248511808856719_);" d="M839.484,1604.927
					c0,0-35.259-24.689-38.048-4.207c-2.788,20.481,31.676,30.007,48.864,22.525L839.484,1604.927z"/>
			</g>
			<g>
				<g>
					
						<linearGradient id="SVGID_00000034086510450654214470000017266594825350187147_" gradientUnits="userSpaceOnUse" x1="13914.7617" y1="1856.9069" x2="14107.4346" y2="2659.7148" gradientTransform="matrix(1 0 0 1 -12978.9785 0)">
						<stop  offset="0" style="stop-color:#2B3582"/>
						<stop  offset="1" style="stop-color:#150E42"/>
					</linearGradient>
					<path style="fill:url(#SVGID_00000034086510450654214470000017266594825350187147_);" d="M791.865,2186.941l81.939-286.15
						c0.93-3.248,3.701-5.617,7.058-6.008c14.846-1.732,57.864-6.596,107.532-10.797c59.827-5.061,129.305-9.161,170.822-5.673
						c5.902,0.496,9.469,6.739,6.844,12.048c-23.609,47.765-120.723,242.06-169.355,305.709c-1.611,2.109-4.103,3.342-6.757,3.317
						l-190.113-1.769C794.305,2197.566,790.343,2192.259,791.865,2186.941z"/>
					
						<linearGradient id="SVGID_00000028315595108319919260000014514656323340040113_" gradientUnits="userSpaceOnUse" x1="13782.7363" y1="2069.2922" x2="13891.9004" y2="2069.2922" gradientTransform="matrix(1 0 0 1 -12978.9785 0)">
						<stop  offset="0" style="stop-color:#F9B776"/>
						<stop  offset="1" style="stop-color:#F47960"/>
					</linearGradient>
					<path style="fill:url(#SVGID_00000028315595108319919260000014514656323340040113_);" d="M811.662,2117.807
						c0,0-11.415-46.935-6.81-63.586c4.604-16.652,13.525-38.061,43.26-33.303c29.736,4.757,64.811,17.284,64.811,17.284
						s-1.772,21.689-24.371,14.692l14.015,10.844c0,0-2.003,17.366-21.092,8.088l13.034,14.38c0,0-8.198,14.263-22.242,5.115
						C858.222,2082.172,851.49,2123.459,811.662,2117.807z"/>
				</g>
			</g>
		</g>
		<path style="opacity:0.34;fill:#FFFFFF;" d="M2361.026,2786.337l-1029.119-32.177c-42.613-1.332-76.459-35.885-76.459-78.055
			v-547.418c0-49.462,40.538-89.558,90.544-89.558h1099.099c39.113,0,70.404,32.127,68.946,70.787l-20.917,554.472
			C2490.492,2734.053,2431.473,2788.54,2361.026,2786.337z"/>
		<g>
			<g>
				
					<linearGradient id="SVGID_00000145036296002599774870000002672381592877265831_" gradientUnits="userSpaceOnUse" x1="1906.439" y1="2907.031" x2="1883.84" y2="1434.4131">
					<stop  offset="0" style="stop-color:#FDF53F"/>
					<stop  offset="0.6645" style="stop-color:#E57A58"/>
					<stop  offset="1" style="stop-color:#D93C65"/>
				</linearGradient>
				<path style="fill:url(#SVGID_00000145036296002599774870000002672381592877265831_);" d="M2241.232,2679.239h-712.634
					c-28.771,0-52.095-21.337-52.095-47.658v-424.518c0-25.29,21.594-46.177,49.195-47.584l740.133-37.74
					c30.988-1.58,56.604,21.823,54.917,50.174l-27.499,462.257C2291.746,2659.448,2268.903,2679.239,2241.232,2679.239z"/>
				<g>
					
						<linearGradient id="SVGID_00000155117968005571970010000018005844491057994145_" gradientUnits="userSpaceOnUse" x1="1828.297" y1="2489.5283" x2="1994.0133" y2="1604.4496">
						<stop  offset="0" style="stop-color:#FDF53F"/>
						<stop  offset="0.6645" style="stop-color:#E57A58"/>
						<stop  offset="1" style="stop-color:#D93C65"/>
					</linearGradient>
					<path style="fill:url(#SVGID_00000155117968005571970010000018005844491057994145_);" d="M1901.554,2423.081l389.549-296.798
						c-7.6-3.315-16.202-5.006-25.272-4.544l-740.133,37.74c-12.727,0.649-24.17,5.447-32.814,12.901l291.543,248.048
						C1816.077,2447.356,1868.144,2448.536,1901.554,2423.081z"/>
				</g>
			</g>
			<path style="fill:#FFFFFF;" d="M1847.4,2408.372c-19.368,0-38.646-6.338-54.138-18.852l-109.848-88.717
				c-3.224-2.604-3.53-7.104-0.684-10.053c2.846-2.954,7.77-3.232,10.989-0.626l109.847,88.717
				c23.336,18.845,57.286,20.4,82.568,3.779l56.92-37.427c3.503-2.295,8.356-1.563,10.867,1.628
				c2.509,3.195,1.713,7.644-1.779,9.941l-56.921,37.428C1880.786,2403.679,1864.06,2408.372,1847.4,2408.372z"/>
			<path style="fill:#FFFFFF;" d="M1647.698,2269.58c-1.832,0-3.669-0.587-5.15-1.783l-14.788-11.942
				c-3.224-2.603-3.53-7.104-0.685-10.053c2.844-2.954,7.765-3.227,10.989-0.626l14.788,11.942c3.223,2.604,3.53,7.104,0.684,10.053
				C1651.999,2268.766,1649.852,2269.58,1647.698,2269.58z"/>
		</g>
	</g>
</g>
</svg>
